# xmcd CD database file
#
# Track frame offsets:
#	150
#	12463
#	34213
#	53454
#	73779
#	96330
#
# Disc length: 1541 seconds
#
# Revision: 0
# Processed by: cddbd v1.5.1PL0 Copyright (c) Steve Scherf et al.
# Submitted via: CDex 1.51
#
DISCID=4b060306
DTITLE=NEST OF GEESE - SWEET CODEC
DYEAR=1900
DGENRE=未分類 (日本)
TTITLE0=TODOKE HIKARI - 届け光
TTITLE1=KOI NO CONSTRUCTOR - 恋のコンストラクタ
TTITLE2=ANTI-PRECOG
TTITLE3=SWEET CODEC
TTITLE4=be end up?
TTITLE5=OWL'S DANCE
EXTD=
EXTT0=
EXTT1=
EXTT2=
EXTT3=
EXTT4=
EXTT5=
PLAYORDER=
